# xmcd
#
# Track frame offsets: 
#        150
#        11069
#        24922
#        37547
#        52421
#        64308
#        76785
#        86312
#        98223
#        111210
#
# Disc length: 1701 seconds
#
# Revision: 0
# Processed by: cddbd v1.5PL3 Copyright (c) Steve Scherf et al.
# Submitted via: ExactAudioCopy v0.95a3
#
DISCID=6f06a30a
DTITLE=Larry Ballard - Waiting In The Wings
DYEAR=1977
DGENRE=Country
TTITLE0=Let's Get Down To The Truth
TTITLE1=Every Story In The Book
TTITLE2=Man Of The Hour
TTITLE3=One More Hurtin' Song
TTITLE4=It's All Over Town
TTITLE5=Mother Texas
TTITLE6=Sad Situation
TTITLE7=Neon Lights
TTITLE8=You Never Meant To Stay
TTITLE9=Waiting In The Wings
EXTD=
EXTT0=
EXTT1=
EXTT2=
EXTT3=
EXTT4=
EXTT5=
EXTT6=
EXTT7=
EXTT8=
EXTT9=
PLAYORDER=
